<?xml version="1.0" encoding="UTF-8"?>
<!DOCTYPE svg PUBLIC "-//W3C//DTD SVG 1.1 Basic//EN" "http://www.w3.org/Graphics/SVG/1.1/DTD/svg11-basic.dtd">
<svg xmlns="http://www.w3.org/2000/svg" width="180" height="185" viewBox="0 0 180 185" baseProfile="basic" version="1.1">
<path d="M 164.07,82.2 C 170.8,130.13 140.4,174 96.2,180.3 C 51.9,186.5 10.6,152.7 3.93,104.79 C -2.79,56.87 27.6,12.98 71.843612,6.7 C 116.1,0.5 157.4,34.3 164,82.21z" style="fill-opacity:0.2" id="_1"/>
<path d="M 176.07,80.2 C 182.8,128 152.4,172.03 108.16,178.26 C 63.9,184.5 22.6,150.7 15.9,102.79 C 9.22,54.9 39.6,10.9 83.8,4.7 C 128,-1.5 169,32.3 176,80.2 z" style="fill:#062" id="_2"/>
<path d="M 160.057,82.470048 C 165.43,120.8 141.1,155.9 105.7,160.9 C 70.35,165.89 37.3,138.9 31.9,100.5 C 26.6,62.2 50.9,27 86.3,22 C 121.7,17.1 154.7,44 160.057,82.5 L 160.057,82.5 z" style="fill:#ded" id="_3"/>
<path d="M 83.3,47.3 L 88.6,85.46 L 53.4,90.43 L 55.3,104.3 L 90.57,99 L 95.92,137.5 L 108.7,135.7 L 103.4,97.5 L 138.6,92.6 L 136.7,78.69 L 101,83.7 L 96,45.5 L 83.3,47.3 z" style="fill:#062" id="_4"/>
</svg>